<svg viewBox="0 0 233.30078125 159.98291015625" version="1.1" xmlns="http://www.w3.org/2000/svg" class="external-link__icon layout-box"><g transform="matrix(1 0 0 1 68.13969238281243 115.221435546875)"><path d="M 84.5703 -17.334 L 84.5215 -66.4551 C 84.5215 -69.2383 82.7148 -71.1914 79.7852 -71.1914 L 30.6641 -71.1914 C 27.9297 -71.1914 26.0742 -69.0918 26.0742 -66.748 C 26.0742 -64.4043 28.1738 -62.4023 30.4688 -62.4023 L 47.4609 -62.4023 L 71.2891 -63.1836 L 62.207 -55.2246 L 13.8184 -6.73828 C 12.9395 -5.85938 12.4512 -4.73633 12.4512 -3.66211 C 12.4512 -1.31836 14.5508 0.878906 16.9922 0.878906 C 18.1152 0.878906 19.1895 0.488281 20.0684 -0.439453 L 68.5547 -48.877 L 76.6113 -58.0078 L 75.7324 -35.2051 L 75.7324 -17.1387 C 75.7324 -14.8438 77.7344 -12.6953 80.127 -12.6953 C 82.4707 -12.6953 84.5703 -14.6973 84.5703 -17.334 Z"></path></g></svg>