<svg viewBox="0 0 140.23486328125 118.2138671875" version="1.1" xmlns="http://www.w3.org/2000/svg" class=" glyph-box" aria-hidden="true"><g transform="matrix(1 0 0 1 -12.451201171875027 94.3369140625)"><path d="M 45.4102 18.4082 C 47.998 18.4082 49.7559 17.5293 52.8809 14.7949 L 69.2383 0.146484 C 72.7539 4.00391 78.0762 6.05469 84.8633 6.05469 L 101.709 6.05469 L 118.018 20.0195 C 120.996 22.5586 122.607 23.877 124.951 23.877 C 128.32 23.877 130.225 21.4844 130.225 17.7734 L 130.225 6.05469 L 132.275 6.05469 C 144.531 6.05469 152.686 -1.31836 152.686 -14.1113 L 152.686 -42.9688 C 152.686 -55.7617 144.531 -63.1348 132.275 -63.1348 L 124.609 -63.1348 L 124.609 -66.8457 C 124.609 -80.127 116.748 -87.793 103.467 -87.793 L 33.5938 -87.793 C 20.8496 -87.793 12.4512 -80.127 12.4512 -66.8457 L 12.4512 -21.875 C 12.4512 -8.59375 20.8496 -0.927734 33.5938 -0.927734 L 40.0391 -0.927734 L 40.0391 12.4023 C 40.0391 16.1621 41.9434 18.4082 45.4102 18.4082 Z M 47.4121 -4.19922 C 47.4121 -6.98242 45.752 -8.30078 43.6035 -8.30078 L 34.082 -8.30078 C 25.4395 -8.30078 20.3125 -12.9883 20.3125 -22.1191 L 20.3125 -66.6016 C 20.3125 -75.6836 25.4395 -80.4688 34.082 -80.4688 L 102.979 -80.4688 C 111.621 -80.4688 116.748 -75.6836 116.748 -66.6016 L 116.748 -63.1348 L 84.8633 -63.1348 C 72.0703 -63.1348 64.502 -55.7617 64.502 -42.9688 L 64.502 -14.1113 C 64.502 -11.4746 64.7949 -9.08203 65.4297 -6.88477 L 47.4121 9.7168 Z M 122.9 15.0391 L 107.227 0.976562 C 105.273 -0.732422 104.102 -1.26953 101.416 -1.26953 L 85.3516 -1.26953 C 77.1973 -1.26953 72.3145 -5.71289 72.3145 -14.3555 L 72.3633 -42.7246 C 72.3633 -51.3184 77.1973 -55.8105 85.3516 -55.8105 L 131.836 -55.8105 C 139.941 -55.8105 144.824 -51.3184 144.824 -42.7246 L 144.824 -14.3555 C 144.824 -5.71289 139.941 -1.26953 131.836 -1.26953 L 126.66 -1.26953 C 124.561 -1.26953 122.9 -0.0488281 122.9 2.73438 Z"></path></g></svg>