<svg xmlns:xlink="http://www.w3.org/1999/xlink" viewBox="0 0 89.3558349609375 90.6728515625" version="1.1" xmlns="http://www.w3.org/2000/svg" class=" glyph-box" aria-hidden="true" width="89.3558349609375" height="90.6728515625"><g transform="matrix(1 0 0 1 -12.451142578124973 80.56640625)" fill="#0071E3"><path d="M 57.1289 5.37109 C 59.3262 5.37109 61.084 3.61328 61.084 1.41602 L 61.084 -41.0645 C 65.5762 -42.6758 68.8477 -47.0215 68.8477 -52.0996 C 68.8477 -57.1777 65.5762 -61.5234 61.084 -63.1348 L 61.084 -76.8066 C 61.084 -78.8086 59.3262 -80.5664 57.1289 -80.5664 C 54.9316 -80.5664 53.2227 -78.8086 53.2227 -76.8066 L 53.2227 -63.1836 C 48.6328 -61.5234 45.3613 -57.1777 45.3613 -52.0996 C 45.3613 -47.0215 48.6328 -42.6758 53.2227 -41.0645 L 53.2227 1.41602 C 53.2227 3.61328 54.9316 5.37109 57.1289 5.37109 Z M 78.3691 -23.877 C 78.3691 -18.7988 81.5918 -14.4531 86.1328 -12.8418 L 86.1328 1.61133 C 86.1328 3.61328 87.8906 5.37109 90.0879 5.37109 C 92.2852 5.37109 93.9941 3.61328 93.9941 1.61133 L 93.9941 -12.8418 C 98.5352 -14.4531 101.807 -18.7988 101.807 -23.877 C 101.807 -28.9551 98.5352 -33.3496 93.9941 -34.9609 L 93.9941 -76.6113 C 93.9941 -78.8086 92.2852 -80.5664 90.0879 -80.5664 C 87.8906 -80.5664 86.1328 -78.8086 86.1328 -76.6113 L 86.1328 -34.9121 C 81.5918 -33.3008 78.3691 -28.9551 78.3691 -23.877 Z M 24.2188 5.37109 C 26.416 5.37109 28.125 3.61328 28.125 1.61133 L 28.125 -12.8418 C 32.666 -14.4531 35.9375 -18.7988 35.9375 -23.877 C 35.9375 -28.9551 32.666 -33.3008 28.125 -34.9121 L 28.125 -76.6113 C 28.125 -78.8086 26.416 -80.5664 24.2188 -80.5664 C 22.0215 -80.5664 20.2637 -78.8086 20.2637 -76.6113 L 20.2637 -34.9609 C 15.7227 -33.3008 12.4512 -28.9551 12.4512 -23.877 C 12.4512 -18.7988 15.7227 -14.4531 20.2637 -12.8418 L 20.2637 1.61133 C 20.2637 3.61328 22.0215 5.37109 24.2188 5.37109 Z M 51.416 -52.0996 C 51.416 -55.2734 53.9551 -57.8125 57.1289 -57.8125 C 60.3516 -57.8125 62.8418 -55.2734 62.8418 -52.0996 C 62.8418 -48.877 60.3516 -46.3867 57.1289 -46.3867 C 53.9551 -46.3867 51.416 -48.877 51.416 -52.0996 Z M 84.375 -23.877 C 84.375 -27.0996 86.9141 -29.5898 90.0879 -29.5898 C 93.3594 -29.5898 95.8008 -27.0996 95.8008 -23.877 C 95.8008 -20.6543 93.3594 -18.1641 90.0879 -18.1641 C 86.9141 -18.1641 84.375 -20.6543 84.375 -23.877 Z M 18.457 -23.877 C 18.457 -27.0996 20.9961 -29.5898 24.2188 -29.5898 C 27.4414 -29.5898 29.9316 -27.0996 29.9316 -23.877 C 29.9316 -20.6543 27.4414 -18.1641 24.2188 -18.1641 C 20.9961 -18.1641 18.457 -20.6543 18.457 -23.877 Z" fill="#0071E3"></path></g></svg>