<svg xmlns:xlink="http://www.w3.org/1999/xlink" viewBox="0 0 79.736083984375 111.1806640625" version="1.1" xmlns="http://www.w3.org/2000/svg" class=" glyph-box" aria-hidden="true" width="79.736083984375" height="111.1806640625"><g transform="matrix(1 0 0 1 -23.04686523437499 90.8203125)" fill="#0071E3"><path d="M 57.5684 15.4785 C 74.707 15.4785 86.8164 6.20117 93.3105 -12.1094 L 101.904 -36.2793 C 102.49 -37.9395 102.783 -39.5508 102.783 -41.0156 C 102.783 -46.1914 98.877 -49.8047 93.8965 -49.8047 C 90.5273 -49.8047 87.5 -47.8027 85.8398 -43.9453 L 82.666 -36.1328 C 82.5684 -35.9375 82.4219 -35.791 82.2266 -35.791 C 81.9824 -35.791 81.8848 -35.9863 81.8848 -36.2305 L 81.8848 -75.3906 C 81.8848 -81.1035 78.3203 -84.7168 72.8516 -84.7168 C 70.8496 -84.7168 69.043 -83.9844 67.6758 -82.7148 C 67.041 -87.7441 63.8184 -90.8203 58.9844 -90.8203 C 54.248 -90.8203 50.9277 -87.6465 50.1953 -82.8125 C 48.9746 -84.0332 47.2168 -84.7168 45.459 -84.7168 C 40.3809 -84.7168 37.0117 -81.1523 37.0117 -75.7324 L 37.0117 -70.3125 C 35.6934 -71.6797 33.6914 -72.4121 31.6406 -72.4121 C 26.5625 -72.4121 23.0469 -68.7012 23.0469 -63.1836 L 23.0469 -21.2402 C 23.0469 1.61133 36.9141 15.4785 57.5684 15.4785 Z M 57.3242 8.74023 C 40.0391 8.74023 29.4922 -2.39258 29.4922 -22.0215 L 29.4922 -62.5 C 29.4922 -64.5996 30.8105 -66.0156 32.8613 -66.0156 C 34.8633 -66.0156 36.3281 -64.5996 36.3281 -62.5 L 36.3281 -37.5488 C 36.3281 -35.7422 37.793 -34.5215 39.3555 -34.5215 C 41.0156 -34.5215 42.5293 -35.7422 42.5293 -37.5488 L 42.5293 -74.8535 C 42.5293 -76.9531 43.8477 -78.418 45.8496 -78.418 C 47.9004 -78.418 49.3164 -76.9531 49.3164 -74.8535 L 49.3164 -40.0391 C 49.3164 -38.2324 50.7812 -37.0117 52.3926 -37.0117 C 54.0527 -37.0117 55.5176 -38.2324 55.5176 -40.0391 L 55.5176 -80.9082 C 55.5176 -83.0078 56.9336 -84.5215 58.9844 -84.5215 C 60.9375 -84.5215 62.3535 -83.0078 62.3535 -80.9082 L 62.3535 -40.0391 C 62.3535 -38.3301 63.7207 -37.0117 65.4297 -37.0117 C 67.0898 -37.0117 68.5547 -38.3301 68.5547 -40.0391 L 68.5547 -74.8535 C 68.5547 -76.9531 69.9707 -78.418 71.9727 -78.418 C 73.9746 -78.418 75.3906 -76.9531 75.3906 -74.8535 L 75.3906 -26.8066 C 75.3906 -24.3652 76.8066 -22.9492 78.8574 -22.9492 C 80.6152 -22.9492 82.0801 -23.7305 83.2031 -26.1719 L 90.2344 -41.8457 C 91.1621 -43.9453 92.9688 -44.6777 94.6777 -44.043 C 96.582 -43.3594 97.168 -41.5527 96.2891 -39.1602 L 87.3535 -14.209 C 81.3965 2.44141 70.9473 8.74023 57.3242 8.74023 Z" fill="#0071E3"></path></g></svg>