<svg xmlns:xlink="http://www.w3.org/1999/xlink" xmlns="http://www.w3.org/2000/svg" viewBox="0 0 25 25" width="25" height="25"><rect width="25" height="25" fill="none"></rect><path d="M12.5,22A9.49994,9.49994,0,0,1,5.39844,6.18994a.55026.55026,0,0,1,.82226.73145,8.39958,8.39958,0,1,0,6.8291-2.80371V7.35059a.5498.5498,0,0,1-1.0996,0V3H12.5a9.5,9.5,0,0,1,0,19Z" fill="#1D1D1F"></path><path d="M11.24463,13.39237,7.974,8.55143c-.25-.38008.08-.76015.48009-.4801L13.285,11.342a1.53428,1.53428,0,0,1,.77015,1.30025,1.49194,1.49194,0,0,1-1.50029,1.50029A1.57551,1.57551,0,0,1,11.24463,13.39237Z" fill="#1D1D1F"></path></svg>